<?xml version="1.0" encoding="UTF-8"?>
<svg width="302px" height="88px" viewBox="0 0 302 88" version="1.1" xmlns="http://www.w3.org/2000/svg" xmlns:xlink="http://www.w3.org/1999/xlink">
    <!-- Generator: Sketch 59.1 (86144) - https://sketch.com -->
    <title>移动端LOGO</title>
    <desc>Created with Sketch.</desc>
    <defs>
        <linearGradient x1="8.20687235%" y1="2.86690658%" x2="91.69849%" y2="94.4322358%" id="linearGradient-1">
            <stop stop-color="#2E2E30" offset="0%"></stop>
            <stop stop-color="#1A1A1C" offset="100%"></stop>
        </linearGradient>
    </defs>
    <g id="页面-1" stroke="none" stroke-width="1" fill="none" fill-rule="evenodd">
        <g id="画板备份" transform="translate(-1809.000000, -266.000000)">
            <g id="移动端LOGO" transform="translate(1809.000000, 266.000000)">
                <path d="M140,61 L140,54.3820225 L122.409382,54.3820225 L122.409382,45.1488764 L137.38806,45.1488764 L137.38806,38.5308989 L122.409382,38.5308989 L122.409382,29.6179775 L140,29.6179775 L140,23 L115,23 L115,61 L140,61 Z M154,29 L154,23 L147,23 L147,29 L154,29 Z M154,62 L154,34 L147,34 L147,62 L154,62 Z M185,61 L185,43.3074004 C185,41.7843061 184.81409,40.3763506 184.442263,39.0834915 C184.070437,37.7906324 183.317943,36.5774883 182.184758,35.4440228 C181.405693,34.6647652 180.467288,34.0626207 179.369515,33.6375712 C178.271742,33.2125216 177.032339,33 175.65127,33 C174.376437,33 173.137035,33.2390868 171.933025,33.7172676 C170.729016,34.1954483 169.666671,34.9127087 168.745958,35.8690702 L168.745958,33.3187856 L162,33.3187856 L162,61 L168.905312,61 L168.905312,44.2637571 C168.905312,43.3073956 169.046958,42.5104396 169.330254,41.8728653 C169.61355,41.2352909 169.976518,40.7216971 170.419169,40.3320683 C170.861819,39.9424395 171.35758,39.6590774 171.906467,39.4819734 C172.455353,39.3048694 172.995378,39.2163188 173.526559,39.2163188 C174.057739,39.2163188 174.597765,39.3048694 175.146651,39.4819734 C175.695538,39.6590774 176.191299,39.9424395 176.633949,40.3320683 C177.0766,40.7216971 177.430715,41.2352909 177.696305,41.8728653 C177.961895,42.5104396 178.094688,43.3073956 178.094688,44.2637571 L178.094688,61 L185,61 Z M214,61.7274436 L214,43.0300752 C214,39.6867001 213.003877,37.1792064 211.011601,35.5075188 C209.019325,33.8358312 206.066532,33 202.153132,33 C199.840669,33 197.928469,33.2725537 196.416473,33.8176692 C194.904478,34.3627847 193.472551,35.3984886 192.12065,36.924812 L196.549884,41.3402256 C196.905648,40.9041332 197.261406,40.5407283 197.617169,40.25 C197.972933,39.9592717 198.355373,39.7230586 198.764501,39.5413534 C199.173629,39.3596482 199.627221,39.2233714 200.12529,39.1325188 C200.623359,39.0416662 201.21036,38.9962406 201.886311,38.9962406 C203.736281,38.9962406 205.061481,39.3505604 205.861949,40.0592105 C206.662417,40.7678607 207.062645,41.903501 207.062645,43.4661654 L207.062645,44.8834586 L200.49884,44.8834586 C198.897904,44.8834586 197.501553,45.1015016 196.309745,45.537594 C195.117937,45.9736864 194.130708,46.5642193 193.348028,47.3092105 C192.565348,48.0542017 191.978347,48.9263734 191.587007,49.9257519 C191.195667,50.9251303 191,51.9880896 191,53.1146617 C191,54.3865978 191.195667,55.5676637 191.587007,56.6578947 C191.978347,57.7481258 192.54756,58.6929785 193.294664,59.4924812 C194.931176,61.1641688 197.296968,62 200.392111,62 C201.993047,62 203.300459,61.7819571 204.314385,61.3458647 C205.328311,60.9097723 206.297753,60.219303 207.222738,59.2744361 L207.222738,61.7274436 L214,61.7274436 Z M208,51.4117647 C208,53.0252182 207.640155,54.1344508 206.920455,54.7394958 C206.276512,55.3109272 205.594701,55.6638649 204.875,55.7983193 C204.155299,55.9327738 203.284096,56 202.261364,56 C200.821963,56 199.751897,55.7226918 199.051136,55.1680672 C198.350375,54.6134426 198,53.8823575 198,52.9747899 C198,52.0336087 198.359845,51.3025236 199.079545,50.7815126 C199.799246,50.2605016 200.821963,50 202.147727,50 L208,50 L208,51.4117647 Z M245,61 L245,43.3074004 C245,41.7843061 244.81409,40.3763506 244.442263,39.0834915 C244.070437,37.7906324 243.317943,36.5774883 242.184758,35.4440228 C241.405693,34.6647652 240.467288,34.0626207 239.369515,33.6375712 C238.271742,33.2125216 237.032339,33 235.65127,33 C234.376437,33 233.137035,33.2390868 231.933025,33.7172676 C230.729016,34.1954483 229.666671,34.9127087 228.745958,35.8690702 L228.745958,33.3187856 L222,33.3187856 L222,61 L228.905312,61 L228.905312,44.2637571 C228.905312,43.3073956 229.046958,42.5104396 229.330254,41.8728653 C229.61355,41.2352909 229.976518,40.7216971 230.419169,40.3320683 C230.861819,39.9424395 231.35758,39.6590774 231.906467,39.4819734 C232.455353,39.3048694 232.995378,39.2163188 233.526559,39.2163188 C234.057739,39.2163188 234.597765,39.3048694 235.146651,39.4819734 C235.695538,39.6590774 236.191299,39.9424395 236.633949,40.3320683 C237.0766,40.7216971 237.430715,41.2352909 237.696305,41.8728653 C237.961895,42.5104396 238.094688,43.3073956 238.094688,44.2637571 L238.094688,61 L245,61 Z M273,58.1369606 L268.219753,53.4033771 C267.49547,54.2013798 266.789304,54.7726687 266.101235,55.1172608 C265.413165,55.4618529 264.598359,55.6341463 263.65679,55.6341463 C261.990938,55.6341463 260.651034,55.0175171 259.637037,53.7842402 C258.586826,52.4784175 258.061728,50.3746236 258.061728,47.4727955 C258.061728,45.9493357 258.188476,44.6979411 258.441975,43.7185741 C258.695475,42.7392071 259.093824,41.904944 259.637037,41.2157598 C260.651034,39.9824829 261.990938,39.3658537 263.65679,39.3658537 C264.598359,39.3658537 265.413165,39.5381471 266.101235,39.8827392 C266.789304,40.2273313 267.49547,40.7986202 268.219753,41.5966229 L273,36.8086304 C271.732504,35.5028077 270.347333,34.5415916 268.844444,33.9249531 C267.341556,33.3083146 265.612355,33 263.65679,33 C262.244437,33 260.786839,33.2176338 259.283951,33.6529081 C257.781062,34.0881823 256.423051,34.8499008 255.209877,35.9380863 C253.996702,37.0262719 252.991774,38.5043684 252.195062,40.3724203 C251.39835,42.2404721 251,44.6072402 251,47.4727955 C251,50.3383508 251.39835,52.7051189 252.195062,54.5731707 C252.991774,56.4412226 253.996702,57.9283872 255.209877,59.0347092 C256.423051,60.1410312 257.781062,60.9118177 259.283951,61.3470919 C260.786839,61.7823662 262.244437,62 263.65679,62 C265.612355,62 267.341556,61.6826173 268.844444,61.0478424 C270.347333,60.4130675 271.732504,59.4427833 273,58.1369606 Z M302,49.7035647 L302,46.5478424 C302,44.5891084 301.724672,42.7845611 301.174009,41.1341463 C300.623345,39.4837316 299.815718,38.0600435 298.751101,36.8630394 C297.686485,35.6660353 296.37409,34.7229553 294.813877,34.0337711 C293.253663,33.3445869 291.482389,33 289.5,33 C287.627744,33 285.92989,33.3173827 284.406388,33.9521576 C282.882885,34.5869325 281.57049,35.5209444 280.469163,36.7542214 C279.367836,37.9874983 278.51432,39.5018672 277.90859,41.2973734 C277.30286,43.0928795 277,45.151333 277,47.4727955 C277,50.3383508 277.376281,52.7051189 278.128855,54.5731707 C278.881428,56.4412226 279.872608,57.9283872 281.102423,59.0347092 C282.332238,60.1410312 283.745587,60.9118177 285.342511,61.3470919 C286.939435,61.7823662 288.582224,62 290.270925,62 C291.555807,62 292.712183,61.9002512 293.740088,61.7007505 C294.767993,61.5012498 295.713285,61.2110713 296.575991,60.8302064 C297.438697,60.4493414 298.237148,59.9868695 298.971366,59.4427767 C299.705584,58.898684 300.439791,58.2639186 301.174009,57.5384615 L296.823789,53.3489681 C295.906016,54.2557894 294.988257,54.9268271 294.070485,55.3621013 C293.152712,55.7973755 291.90456,56.0150094 290.325991,56.0150094 C288.306892,56.0150094 286.755879,55.4255844 285.672907,54.2467167 C284.589936,53.067849 284.048458,51.5534802 284.048458,49.7035647 L302,49.7035647 Z M295,45 L284,45 C284.037037,44.3818151 284.101851,43.8454568 284.194444,43.3909091 C284.287038,42.9363614 284.444443,42.454548 284.666667,41.9454545 C285.074076,41.1090867 285.675922,40.4090937 286.472222,39.8454545 C287.268522,39.2818154 288.277772,39 289.5,39 C290.722228,39 291.731477,39.2818154 292.527778,39.8454545 C293.324078,40.4090937 293.925924,41.1090867 294.333333,41.9454545 C294.555557,42.454548 294.712962,42.9363614 294.805556,43.3909091 C294.898149,43.8454568 294.962963,44.3818151 295,45 Z" id="Einance" fill="#252527" fill-rule="nonzero"></path>
                <g id="192x192_App_Icon">
                    <rect id="矩形" fill="url(#linearGradient-1)" x="0" y="0" width="88" height="88" rx="20"></rect>
                    <path d="M44.042165,33.51161 C39.55625,33.51161 35.739185,36.37916 34.32473,40.381235 C33.94505,41.455175 33.73883,42.611435 33.73883,43.81547 C33.73883,45.020135 33.94505,46.17587 34.325255,47.25044 C35.739605,51.2522 39.55625,54.119435 44.042165,54.119435 L57.782045,54.119435 L65.770655,54.119435 C66.784955,51.984365 67.494125,49.675835 67.840835,47.25044 L60.871775,47.25044 L53.7596,47.25044 L44.042165,47.24981 C42.14534,47.24981 40.607825,45.7124 40.607825,43.81547 C40.607825,41.918855 42.14534,40.381235 44.042165,40.381235 L53.76002,40.381235 C52.34567,36.37916 48.52871,33.51161 44.042165,33.51161 L44.042165,33.51161 Z M44.042165,60.988535 C38.42414,60.988535 33.435695,58.290455 30.302705,54.119435 C28.802465,52.12265 27.72821,49.78829 27.21329,47.25044 C26.987435,46.140485 26.869205,44.991995 26.869205,43.81547 C26.869205,42.63947 26.987435,41.49056 27.212555,40.381235 C27.72779,37.843385 28.802465,35.50892 30.302705,33.51161 C32.755715,30.2459 36.346295,27.8834 40.48571,27.011585 L40.48571,20.034965 C35.35499,20.795795 30.75284,23.17751 27.216335,26.64272 C25.20401,28.61441 23.53724,30.937325 22.314095,33.51161 C21.299375,35.6471 20.59073,37.95584 20.243495,40.381235 C20.083265,41.50295 20,42.64934 20,43.81547 C20,44.981705 20.083265,46.128725 20.243495,47.25044 C20.59073,49.675835 21.299375,51.984365 22.314095,54.119435 C23.53724,56.69393 25.20443,59.01695 27.216335,60.988535 C31.553045,65.23778 37.49174,67.85753 44.042165,67.85753 C50.592905,67.85753 56.53181,65.23778 60.8681,60.988535 L44.042165,60.988535 Z M47.355125,26.96213 C51.597755,27.791315 55.281155,30.181955 57.782045,33.51161 C59.281865,35.50892 60.35696,37.843385 60.871775,40.381235 L67.840835,40.381235 C67.494125,37.95584 66.785375,35.6471 65.770655,33.51161 C64.547825,30.937325 62.880845,28.61441 60.868415,26.64272 C57.276155,23.122595 52.58423,20.720615 47.355125,20 L47.355125,26.96213 Z" id="Fill-1" fill="#FFFFFF"></path>
                </g>
            </g>
        </g>
    </g>
</svg>