<?xml version="1.0" encoding="UTF-8"?>
<svg width="125px" height="149px" viewBox="0 0 125 149" version="1.1" xmlns="http://www.w3.org/2000/svg" xmlns:xlink="http://www.w3.org/1999/xlink">
    <!-- Generator: Sketch 59.1 (86144) - https://sketch.com -->
    <title>PC首页LOGO</title>
    <desc>Created with Sketch.</desc>
    <g id="页面-1" stroke="none" stroke-width="1" fill="none" fill-rule="evenodd">
        <g id="画板备份" transform="translate(-1568.000000, -236.000000)" fill="#FFFFFF">
            <g id="PC首页LOGO" transform="translate(1568.000000, 236.000000)">
                <path d="M62.515438,22 C55.1489726,22 48.8808473,26.7310524 46.5581252,33.3339108 C45.9346405,35.1057601 45.596,37.0134257 45.596,38.9999134 C45.596,40.9874405 45.9346405,42.8942399 46.5589874,44.6671286 C48.881537,51.2694673 55.1489726,56 62.515438,56 L85.0781372,56 L98.1964908,56 C99.8621055,52.4774361 101.026656,48.6686877 101.596,44.6671286 L90.1518823,44.6671286 L78.4727508,44.6671286 L62.515438,44.6660892 C59.4006006,44.6660892 56.8757978,42.1295799 56.8757978,38.9999134 C56.8757978,35.8707666 59.4006006,33.3339108 62.515438,33.3339108 L78.4734405,33.3339108 C76.1508908,26.7310524 69.882938,22 62.515438,22 L62.515438,22 Z M63.0112176,66.7964686 C53.8009124,66.7964686 45.6227535,62.3958213 40.4864655,55.5927659 C38.0269414,52.3359512 36.2657857,48.5285419 35.4216153,44.3892345 C35.051344,42.5788654 34.8575153,40.7056447 34.8575153,38.7866981 C34.8575153,36.8686077 35.051344,34.994702 35.4204104,33.1853605 C36.2650972,29.0460531 38.0269414,25.2384725 40.4864655,21.9808015 C44.5079804,16.6543332 50.3944507,12.8010267 57.1806925,11.3790709 L57.1806925,0 C48.769285,1.24093595 41.2244261,5.12558266 35.4266074,10.7774414 C32.1275606,13.9933253 29.3950237,17.7820675 27.3897747,21.9808015 C25.726222,25.4638481 24.5644549,29.2294704 23.9951907,33.1853605 C23.7325063,35.0149104 23.596,36.884706 23.596,38.7866981 C23.596,40.6888614 23.7325063,42.5596845 23.9951907,44.3892345 C24.5644549,48.3451245 25.726222,52.1104044 27.3897747,55.5927659 C29.3950237,59.7918424 32.1282491,63.5807559 35.4266074,66.7964686 C42.5362985,73.7271112 52.2723167,78 63.0112176,78 C73.7506349,78 83.4869974,73.7271112 90.596,66.7964686 L63.0112176,66.7964686 Z M68.596,11.2726383 C75.4303636,12.6152019 81.3638753,16.4859742 85.3925064,21.8771399 C87.808535,25.1110573 89.5403829,28.8908746 90.3696876,33 L101.596,33 C101.037492,29.0729546 99.8957817,25.3347896 98.2611905,21.8771399 C96.2913594,17.7090213 93.6060563,13.947905 90.3642751,10.7554699 C84.5775789,5.05590731 77.0194554,1.166774 68.596,0 L68.596,11.2726383 Z" id="Fill-1"></path>
                <path d="M16.884,148 L16.884,143.536 L5.004,143.536 L5.004,137.308 L15.12,137.308 L15.12,132.844 L5.004,132.844 L5.004,126.832 L16.884,126.832 L16.884,122.368 L1.13686838e-13,122.368 L1.13686838e-13,148 L16.884,148 Z M26.136,126.04 L26.136,122.224 L21.348,122.224 L21.348,126.04 L26.136,126.04 Z M26.1,148 L26.1,129.244 L21.42,129.244 L21.42,148 L26.1,148 Z M46.908,148 L46.908,136.012 C46.908,134.979995 46.7820013,134.026004 46.53,133.15 C46.2779987,132.273996 45.7680038,131.452004 45,130.684 C44.4719974,130.155997 43.8360037,129.748001 43.092,129.46 C42.3479963,129.171999 41.5080047,129.028 40.572,129.028 C39.7079957,129.028 38.8680041,129.189998 38.052,129.514 C37.2359959,129.838002 36.5160031,130.323997 35.892,130.972 L35.892,129.244 L31.32,129.244 L31.32,148 L36,148 L36,136.66 C36,136.011997 36.095999,135.472002 36.288,135.04 C36.480001,134.607998 36.7259985,134.260001 37.026,133.996 C37.3260015,133.731999 37.6619981,133.540001 38.034,133.42 C38.4060019,133.299999 38.7719982,133.24 39.132,133.24 C39.4920018,133.24 39.8579981,133.299999 40.23,133.42 C40.6020019,133.540001 40.9379985,133.731999 41.238,133.996 C41.5380015,134.260001 41.7779991,134.607998 41.958,135.04 C42.1380009,135.472002 42.228,136.011997 42.228,136.66 L42.228,148 L46.908,148 Z M66.132,148 L66.132,135.652 C66.132,133.443989 65.4600067,131.788006 64.116,130.684 C62.7719933,129.579994 60.7800132,129.028 58.14,129.028 C56.5799922,129.028 55.2900051,129.207998 54.27,129.568 C53.2499949,129.928002 52.2840046,130.611995 51.372,131.62 L54.36,134.536 C54.6000012,134.247999 54.8399988,134.008001 55.08,133.816 C55.3200012,133.623999 55.5779986,133.468001 55.854,133.348 C56.1300014,133.227999 56.4359983,133.138 56.772,133.078 C57.1080017,133.018 57.5039977,132.988 57.96,132.988 C59.2080062,132.988 60.1019973,133.221998 60.642,133.69 C61.1820027,134.158002 61.452,134.907995 61.452,135.94 L61.452,136.876 L57.024,136.876 C55.9439946,136.876 55.002004,137.019999 54.198,137.308 C53.393996,137.596001 52.7280026,137.985998 52.2,138.478 C51.6719974,138.970002 51.2760013,139.545997 51.012,140.206 C50.7479987,140.866003 50.616,141.567996 50.616,142.312 C50.616,143.152004 50.7479987,143.931996 51.012,144.652 C51.2760013,145.372004 51.6599975,145.995997 52.164,146.524 C53.2680055,147.628006 54.8639896,148.18 56.952,148.18 C58.0320054,148.18 58.9139966,148.036001 59.598,147.748 C60.2820034,147.459999 60.9359969,147.004003 61.56,146.38 L61.56,148 L66.132,148 Z M61.452,141.088 C61.452,142.240006 61.2240023,143.031998 60.768,143.464 C60.359998,143.872002 59.9280023,144.124 59.472,144.22 C59.0159977,144.316 58.4640032,144.364 57.816,144.364 C56.9039954,144.364 56.2260022,144.166002 55.782,143.77 C55.3379978,143.373998 55.116,142.852003 55.116,142.204 C55.116,141.531997 55.3439977,141.010002 55.8,140.638 C56.2560023,140.265998 56.9039958,140.08 57.744,140.08 L61.452,140.08 L61.452,141.088 Z M86.76,148 L86.76,136.012 C86.76,134.979995 86.6340013,134.026004 86.382,133.15 C86.1299987,132.273996 85.6200038,131.452004 84.852,130.684 C84.3239974,130.155997 83.6880037,129.748001 82.944,129.46 C82.1999963,129.171999 81.3600047,129.028 80.424,129.028 C79.5599957,129.028 78.7200041,129.189998 77.904,129.514 C77.0879959,129.838002 76.3680031,130.323997 75.744,130.972 L75.744,129.244 L71.172,129.244 L71.172,148 L75.852,148 L75.852,136.66 C75.852,136.011997 75.947999,135.472002 76.14,135.04 C76.332001,134.607998 76.5779985,134.260001 76.878,133.996 C77.1780015,133.731999 77.5139981,133.540001 77.886,133.42 C78.2580019,133.299999 78.6239982,133.24 78.984,133.24 C79.3440018,133.24 79.7099981,133.299999 80.082,133.42 C80.4540019,133.540001 80.7899985,133.731999 81.09,133.996 C81.3900015,134.260001 81.6299991,134.607998 81.81,135.04 C81.9900009,135.472002 82.08,136.011997 82.08,136.66 L82.08,148 L86.76,148 Z M105.444,145.66 L102.276,142.528 C101.795998,143.056003 101.328002,143.433999 100.872,143.662 C100.415998,143.890001 99.8760031,144.004 99.252,144.004 C98.1479945,144.004 97.2600034,143.596004 96.588,142.78 C95.8919965,141.915996 95.544,140.52401 95.544,138.604 C95.544,137.595995 95.6279992,136.768003 95.796,136.12 C95.9640008,135.471997 96.2279982,134.920002 96.588,134.464 C97.2600034,133.647996 98.1479945,133.24 99.252,133.24 C99.8760031,133.24 100.415998,133.353999 100.872,133.582 C101.328002,133.810001 101.795998,134.187997 102.276,134.716 L105.444,131.548 C104.603996,130.683996 103.686005,130.048002 102.69,129.64 C101.693995,129.231998 100.548006,129.028 99.252,129.028 C98.3159953,129.028 97.350005,129.171999 96.354,129.46 C95.357995,129.748001 94.458004,130.251996 93.654,130.972 C92.849996,131.692004 92.1840026,132.669994 91.656,133.906 C91.1279974,135.142006 90.864,136.707991 90.864,138.604 C90.864,140.500009 91.1279974,142.065994 91.656,143.302 C92.1840026,144.538006 92.849996,145.521996 93.654,146.254 C94.458004,146.986004 95.357995,147.495999 96.354,147.784 C97.350005,148.072001 98.3159953,148.216 99.252,148.216 C100.548006,148.216 101.693995,148.006002 102.69,147.586 C103.686005,147.165998 104.603996,146.524004 105.444,145.66 Z M124.488,140.08 L124.488,137.992 C124.488,136.695994 124.308002,135.502005 123.948,134.41 C123.587998,133.317995 123.060003,132.376004 122.364,131.584 C121.667997,130.791996 120.810005,130.168002 119.79,129.712 C118.769995,129.255998 117.612006,129.028 116.316,129.028 C115.091994,129.028 113.982005,129.237998 112.986,129.658 C111.989995,130.078002 111.132004,130.695996 110.412,131.512 C109.691996,132.328004 109.134002,133.329994 108.738,134.518 C108.341998,135.706006 108.144,137.067992 108.144,138.604 C108.144,140.500009 108.389998,142.065994 108.882,143.302 C109.374002,144.538006 110.021996,145.521996 110.826,146.254 C111.630004,146.986004 112.553995,147.495999 113.598,147.784 C114.642005,148.072001 115.715994,148.216 116.82,148.216 C117.660004,148.216 118.415997,148.150001 119.088,148.018 C119.760003,147.885999 120.377997,147.694001 120.942,147.442 C121.506003,147.189999 122.027998,146.884002 122.508,146.524 C122.988002,146.163998 123.467998,145.744002 123.948,145.264 L121.104,142.492 C120.503997,143.092003 119.904003,143.535999 119.304,143.824 C118.703997,144.112001 117.888005,144.256 116.856,144.256 C115.535993,144.256 114.522004,143.866004 113.814,143.086 C113.105996,142.305996 112.752,141.304006 112.752,140.08 L124.488,140.08 Z M119.88,136.876 L112.752,136.876 C112.776,136.467998 112.818,136.114002 112.878,135.814 C112.938,135.513999 113.039999,135.196002 113.184,134.86 C113.448001,134.307997 113.837997,133.846002 114.354,133.474 C114.870003,133.101998 115.523996,132.916 116.316,132.916 C117.108004,132.916 117.761997,133.101998 118.278,133.474 C118.794003,133.846002 119.183999,134.307997 119.448,134.86 C119.592001,135.196002 119.694,135.513999 119.754,135.814 C119.814,136.114002 119.856,136.467998 119.88,136.876 Z" id="Einance" fill-rule="nonzero"></path>
            </g>
        </g>
    </g>
</svg>